P3
# CREATOR: The GIMP's PNM Filter Version 1.0
70 71
255
50
16
5
47
12
3
48
12
4
48
12
6
48
12
6
48
10
6
47
10
6
50
15
6
50
14
5
50
13
6
50
14
4
49
12
5
50
16
6
49
17
3
48
12
6
50
9
8
50
9
6
51
10
6
50
9
7
49
9
5
49
10
4
50
12
5
50
13
7
51
11
6
49
9
4
50
9
6
50
9
5
50
9
7
50
11
6
53
13
8
54
11
9
53
13
6
53
15
6
51
13
4
52
14
5
54
17
6
53
15
6
52
15
4
53
16
4
52
16
4
52
13
4
55
14
7
54
15
6
56
19
6
53
21
4
54
21
4
55
16
7
54
15
5
54
19
5
55
21
5
54
20
3
56
21
4
53
18
4
55
21
4
54
22
3
50
20
5
52
24
1
54
22
3
56
23
5
56
24
3
56
25
2
56
23
4
57
25
3
54
24
4
55
22
3
55
22
2
56
24
2
57
25
3
57
24
4
56
24
5
50
12
4
50
15
6
49
13
5
49
12
6
50
12
7
49
10
7
49
11
5
49
11
4
49
11
4
50
12
6
51
13
6
50
12
7
50
13
5
50
14
5
50
13
7
50
12
8
51
10
7
50
10
6
50
10
7
50
8
5
50
7
4
51
10
5
51
12
7
51
11
8
52
12
8
53
13
8
52
12
6
54
12
9
52
12
7
54
13
7
54
13
7
53
14
6
54
17
6
56
18
7
55
17
5
55
17
4
55
15
6
54
14
4
55
15
6
54
16
7
53
14
7
54
16
6
52
16
5
54
18
5
55
19
4
55
17
5
54
17
6
55
17
6
53
19
3
54
23
3
55
23
4
54
21
4
54
21
5
55
22
5
55
22
3
54
23
4
55
23
4
54
22
3
56
24
2
54
23
2
56
25
3
55
22
4
57
24
2
55
23
2
58
22
4
59
25
5
56
25
4
57
23
3
55
19
3
55
22
2
48
10
5
48
11
6
49
10
5
50
10
6
47
10
6
47
11
6
49
12
5
50
11
5
48
9
4
50
11
6
50
11
5
50
10
6
51
11
5
49
10
6
50
12
6
49
11
6
51
11
8
50
11
6
50
11
6
50
10
5
51
10
5
50
10
5
52
12
7
52
11
6
53
13
7
52
13
6
53
15
6
54
13
6
53
12
6
57
14
5
59
15
4
59
17
6
59
18
6
59
20
6
58
20
5
61
21
6
60
17
5
63
18
6
64
18
4
70
22
4
72
23
4
71
23
4
63
18
3
57
17
5
57
19
5
55
19
4
54
20
5
55
19
5
54
19
4
55
22
3
55
23
2
53
20
4
54
21
4
54
22
4
55
24
2
54
22
1
55
23
3
54
24
2
56
26
2
56
24
4
57
23
4
57
24
4
57
26
3
55
26
2
57
27
2
57
26
2
56
26
2
57
24
3
57
21
4
58
23
4
49
10
5
49
11
7
49
11
7
49
9
5
50
9
5
50
12
6
49
11
5
49
9
5
49
11
6
49
11
5
49
12
4
50
11
6
52
12
6
50
9
6
51
12
6
50
10
6
51
9
7
51
10
6
50
9
6
51
12
8
51
14
6
51
12
4
54
15
7
53
16
5
53
16
7
53
14
7
53
13
6
55
12
7
55
12
7
65
18
5
74
21
4
84
27
4
88
29
2
87
29
2
87
29
2
92
33
4
99
34
2
110
38
3
120
40
2
131
46
2
134
48
3
126
44
3
115
40
2
96
35
2
81
32
2
69
27
2
60
22
3
56
22
4
55
19
4
55
20
3
56
25
4
54
24
4
54
25
4
56
25
3
55
26
2
55
26
3
55
26
2
55
26
2
56
27
2
56
25
3
59
25
4
58
25
3
56
27
2
57
27
1
57
28
1
58
27
1
58
26
2
58
25
2
58
24
2
60
26
3
51
13
6
48
10
5
49
12
6
50
11
6
50
10
5
50
12
6
50
12
5
49
10
5
51
13
7
51
12
5
51
11
5
50
11
6
52
14
7
51
10
6
51
12
8
51
12
7
51
11
6
51
10
7
52
11
7
52
11
7
52
13
7
51
12
7
53
13
7
53
18
5
55
20
4
59
20
5
62
21
5
65
20
4
74
22
4
94
31
1
116
40
2
134
47
2
141
49
2
145
51
1
150
54
2
155
57
2
161
59
1
169
63
2
175
67
2
180
71
2
179
72
2
178
72
3
180
74
2
173
72
1
158
66
2
140
57
2
119
47
4
91
33
4
68
24
3
56
23
3
52
25
2
54
27
2
54
28
2
55
27
2
56
26
1
55
25
2
55
25
3
57
25
3
58
26
3
57
25
2
58
26
2
58
27
2
57
25
2
59
25
2
58
26
1
59
27
2
58
27
1
57
27
1
58
27
1
59
28
2
52
13
7
49
12
5
50
13
5
50
12
5
50
12
7
50
14
8
50
13
5
49
11
5
51
13
5
52
13
5
54
12
7
53
12
8
53
15
7
51
13
8
51
13
7
51
14
5
52
15
6
52
14
7
51
12
8
53
12
6
55
17
8
50
14
5
54
13
5
54
14
5
64
22
4
80
30
3
96
34
2
111
36
1
127
44
3
144
51
1
161
59
2
169
63
1
175
66
1
178
70
1
182
72
1
185
75
2
188
77
1
192
80
1
196
84
2
200
85
2
200
86
1
200
88
3
205
92
3
206
95
1
205
95
1
203
92
2
195
85
3
173
75
2
140
60
4
94
37
3
62
27
2
56
27
2
57
28
2
56
28
2
58
27
2
58
26
3
56
22
2
59
26
3
58
26
2
57
26
2
57
27
1
58
27
1
60
26
3
58
25
1
59
27
2
58
27
1
58
27
0
58
28
0
58
27
0
59
28
1
52
13
7
49
11
5
51
12
6
50
11
5
50
11
6
49
13
5
52
18
5
53
16
7
53
16
6
53
17
5
53
13
4
53
11
5
53
14
6
51
12
6
52
13
6
56
17
7
54
16
5
54
17
5
55
20
5
59
24
5
56
21
5
56
18
8
58
18
5
75
25
4
102
36
2
127
43
1
147
52
1
160
61
3
168
64
1
178
68
1
185
74
1
187
76
1
190
78
1
193
80
0
197
83
0
199
85
0
201
87
1
202
88
0
202
91
0
204
93
1
207
95
0
211
99
0
212
101
1
210
100
2
209
98
2
212
99
3
214
102
1
213
102
1
207
97
3
188
84
3
146
63
2
90
38
3
61
27
1
57
24
2
57
24
2
58
26
3
57
26
2
57
27
1
58
28
1
58
27
2
56
28
0
57
27
0
58
27
1
58
28
1
59
29
1
59
29
1
59
28
0
59
29
1
60
28
0
61
27
0
52
16
7
50
12
7
52
11
9
52
11
7
53
13
7
54
18
8
51
17
3
52
16
7
52
15
6
53
17
5
54
17
5
53
13
6
54
13
7
54
14
8
56
14
7
55
12
4
55
14
4
54
18
5
54
22
3
54
23
3
56
19
5
67
20
3
84
31
2
115
39
2
136
45
2
153
52
1
170
63
1
175
65
1
183
73
1
193
80
2
199
86
1
200
89
1
203
91
1
204
91
1
207
93
3
207
94
2
207
93
0
208
94
1
209
94
1
208
94
1
213
99
2
215
102
1
214
102
2
213
102
2
207
96
1
206
93
1
211
95
2
218
103
2
219
109
1
218
109
1
214
106
2
192
93
3
132
61
3
79
35
4
60
27
3
57
28
1
58
28
1
58
28
1
59
28
2
58
28
1
57
28
1
58
29
1
59
29
0
59
29
1
59
28
0
60
28
0
60
28
0
59
29
1
60
29
1
60
29
0
51
12
6
54
11
6
52
10
6
52
10
6
53
14
5
53
15
5
52
13
5
54
14
8
54
14
6
54
15
6
54
15
7
54
13
6
55
14
5
54
15
5
59
19
6
58
20
3
56
18
6
56
20
5
59
22
4
65
23
3
74
27
3
92
30
4
114
37
1
140
46
1
154
52
1
170
60
2
184
72
2
188
76
2
195
82
1
203
89
1
208
95
2
210
97
1
212
98
1
212
98
0
215
102
1
212
97
1
210
96
1
211
97
2
210
96
0
211
97
1
214
100
1
215
103
0
217
105
0
216
103
1
211
100
2
211
97
1
212
95
1
215
98
1
220
106
0
224
113
1
226
115
1
225
117
2
218
112
3
170
84
4
103
48
3
66
29
1
57
26
2
57
27
4
58
29
2
59
28
0
59
29
0
60
29
0
59
28
0
60
29
1
59
28
0
60
29
0
60
29
0
59
28
0
60
29
0
60
29
0
52
14
5
53
12
5
55
11
6
53
10
5
53
14
5
51
15
5
53
18
6
53
17
4
53
16
5
54
18
7
53
16
6
55
17
5
54
18
4
56
17
5
59
21
5
54
20
5
56
18
5
66
25
3
80
28
2
89
30
1
102
34
1
123
40
2
142
48
0
157
55
0
167
58
1
179
67
2
190
78
1
193
82
1
198
85
1
205
91
1
209
97
1
211
101
1
215
103
1
217
104
1
218
105
1
213
99
1
209
96
1
207
93
1
206
91
1
211
95
1
216
101
1
217
106
0
218
108
0
216
105
0
217
103
1
219
104
1
216
101
0
217
102
1
219
103
0
223
111
2
227
115
0
229
120
2
233
126
1
232
125
3
200
106
6
122
61
4
69
31
3
58
29
3
59
27
2
59
28
0
60
29
0
60
29
0
59
28
0
59
28
0
59
28
1
60
29
1
60
29
0
60
29
0
60
29
0
60
29
0
52
12
5
54
15
6
54
12
5
53
11
6
53
14
6
52
16
5
54
20
5
53
19
4
53
19
3
53
18
5
54
18
5
54
18
4
55
18
4
55
18
6
56
18
4
55
20
4
60
19
4
86
30
2
113
37
1
123
40
2
134
45
1
149
50
2
160
56
1
171
63
1
180
69
1
191
79
1
197
86
0
199
88
1
202
89
1
206
92
0
211
99
1
214
104
1
218
107
0
221
109
1
221
109
0
218
105
1
212
99
1
208
94
0
208
95
1
212
98
1
215
101
1
216
104
1
217
107
1
218
107
1
221
106
0
223
108
1
222
110
1
222
110
1
223
110
1
223
110
1
225
114
1
230
119
2
234
125
1
237
130
1
241
135
3
217
123
5
133
67
4
74
34
3
59
28
2
60
29
0
60
29
0
60
29
0
60
29
0
59
28
0
58
27
0
59
28
0
59
28
0
60
29
0
60
29
0
60
29
0
54
13
5
55
17
6
55
15
5
54
15
5
55
17
6
55
18
5
56
19
5
53
20
3
54
23
4
54
20
3
56
19
4
55
19
5
55
21
4
55
21
3
56
18
6
60
22
3
80
28
3
121
41
2
142
47
1
145
48
1
154
52
0
165
57
1
172
65
0
186
76
1
199
87
1
207
95
1
208
96
2
207
96
1
207
95
1
211
97
1
216
103
1
219
108
0
221
112
0
224
114
0
224
112
1
219
107
0
217
104
0
216
103
1
215
102
1
212
99
1
212
99
2
214
101
2
216
103
1
218
105
0
222
109
1
226
114
1
228
118
1
227
118
0
228
118
1
225
115
1
224
114
1
228
117
1
232
122
1
238
128
2
242
136
3
248
145
2
225
127
3
145
74
4
72
33
1
60
28
0
60
29
1
60
29
0
60
29
0
60
29
0
59
28
1
60
29
0
59
28
0
60
29
0
60
29
0
60
29
1
55
18
6
54
16
6
53
17
5
54
20
4
56
20
5
55
19
5
54
19
5
55
22
4
57
25
4
57
26
3
56
23
4
55
22
3
55
24
3
55
23
3
61
23
4
92
33
2
129
44
2
152
55
2
162
59
1
166
61
1
174
66
1
183
72
1
191
81
1
201
89
1
209
96
1
213
100
0
213
100
1
210
100
2
211
100
1
215
102
2
214
100
1
218
106
0
223
113
0
225
115
1
223
113
1
217
105
1
217
105
2
219
107
2
215
102
1
209
95
0
209
96
0
214
101
3
215
103
1
219
106
1
224
111
1
229
117
1
232
123
1
230
121
1
230
119
2
229
118
1
226
117
1
228
118
2
230
121
1
234
125
1
239
132
2
246
142
1
251
149
2
223
131
4
141
74
2
73
34
2
60
28
2
60
29
0
60
29
1
59
29
0
60
29
0
60
29
0
60
29
0
61
29
0
61
29
0
61
29
0
54
21
4
54
23
4
53
19
3
54
18
2
55
19
4
55
18
3
56
21
3
57
21
4
59
25
3
59
24
3
55
22
3
54
22
3
57
23
4
68
29
2
99
34
2
135
47
3
158
56
1
168
62
1
176
69
1
184
74
1
190
78
1
196
85
2
200
89
1
203
91
2
206
91
2
207
92
2
208
93
1
204
92
2
203
90
0
207
93
0
208
94
1
213
100
0
218
106
1
221
109
0
217
106
1
208
96
1
205
94
1
205
93
0
206
92
0
205
91
0
208
95
0
214
102
0
219
108
1
224
112
1
228
117
0
230
121
0
234
125
1
236
127
1
233
124
0
231
120
1
230
120
2
230
120
1
230
120
0
231
121
0
233
124
0
239
131
2
248
141
2
250
147
2
220
126
5
131
67
2
69
31
2
60
28
1
61
30
0
59
30
0
59
29
0
60
29
0
60
29
1
61
28
1
62
28
1
63
28
1
53
23
4
55
24
3
56
22
5
55
22
5
54
22
4
55
23
4
54
24
2
55
23
4
58
26
3
56
25
2
56
23
3
59
24
4
67
27
3
92
33
2
135
45
1
154
52
1
166
62
2
175
67
1
182
72
2
187
77
0
192
80
1
196
84
2
195
84
0
194
83
0
198
86
1
203
89
2
201
86
1
195
82
1
193
80
0
200
86
1
207
93
2
213
101
1
215
104
0
214
101
1
210
96
2
198
87
0
196
84
0
197
85
1
200
88
0
204
93
1
207
96
2
210
98
1
216
104
0
221
109
1
226
115
1
230
121
0
234
124
1
237
128
0
236
128
1
233
124
2
232
122
0
234
124
0
234
124
1
233
122
0
232
121
1
232
120
1
238
129
0
246
140
1
249
146
3
214
118
4
118
57
3
67
31
3
62
29
2
60
29
2
59
28
0
60
29
0
62
29
0
63
28
1
62
26
0
63
27
1
54
26
3
54
25
2
53
21
2
54
18
4
55
18
4
56
21
3
56
24
3
57
21
2
59
24
2
59
25
3
60
26
3
69
28
2
90
33
0
120
40
4
141
47
3
151
52
1
162
56
0
167
62
0
174
66
1
181
71
0
187
75
1
188
77
0
191
80
2
190
77
2
187
75
1
188
76
0
186
74
1
187
76
1
191
80
1
197
86
0
205
93
2
213
99
1
213
100
1
205
95
1
199
89
1
197
86
0
199
88
1
201
88
2
203
90
0
206
93
0
205
93
1
206
94
1
210
97
1
212
98
0
216
103
0
223
111
1
231
122
0
238
130
1
239
131
2
236
129
1
237
130
0
240
131
1
240
132
1
241
134
1
240
131
1
234
124
2
232
125
1
237
130
3
246
140
1
246
142
3
198
105
5
98
46
4
62
30
1
61
27
1
61
28
0
60
28
0
62
28
0
63
28
1
63
27
1
62
26
1
54
24
2
55
23
3
55
22
2
56
20
4
57
20
3
56
22
4
56
22
4
59
24
4
58
25
3
59
24
3
67
28
3
90
35
1
119
40
1
139
45
1
149
49
1
154
54
2
161
55
1
167
60
1
174
66
1
183
74
1
191
79
2
191
78
1
191
79
1
190
78
1
185
73
1
182
73
1
182
73
1
185
75
1
190
79
1
195
84
1
200
89
1
206
91
1
205
91
1
198
87
0
196
88
1
199
89
0
202
90
1
203
90
1
205
92
0
207
94
0
205
93
0
206
93
0
208
95
0
211
96
1
214
99
2
219
105
2
230
121
0
239
132
1
239
133
1
239
132
0
239
132
1
240
132
1
241
133
1
243
136
1
241
135
1
238
130
1
235
128
2
236
126
3
240
130
2
246
140
2
240
136
2
167
87
3
81
36
3
62
28
1
63
28
1
61
27
1
61
27
1
63
27
1
63
28
1
63
27
1
56
23
4
54
21
3
56
24
3
57
24
3
57
25
2
57
26
2
56
24
3
60
27
4
59
28
2
70
30
3
93
35
2
122
40
1
142
46
1
149
50
1
155
53
0
160
56
0
166
60
1
171
63
0
177
68
0
185
74
1
192
80
1
190
80
1
189
77
0
188
77
0
185
74
0
184
74
0
183
74
1
185
75
1
188
77
1
191
80
0
194
82
0
196
83
0
197
85
1
196
86
1
199
88
1
200
89
1
201
89
1
202
89
0
207
93
1
209
94
0
208
94
0
208
94
0
208
95
0
210
96
0
214
98
1
220
105
2
231
120
0
238
130
1
236
128
1
237
128
1
236
128
1
236
129
1
236
128
2
237
128
1
236
129
1
235
127
1
237
128
2
238
129
1
236
126
2
241
131
2
248
141
1
230
129
5
131
63
3
64
28
2
63
27
2
62
28
2
62
28
2
63
28
1
63
28
0
64
28
1
56
24
3
55
22
3
57
24
4
58
25
3
58
28
2
58
27
2
56
24
2
59
29
2
70
30
3
101
38
3
127
43
2
142
46
1
150
51
1
156
54
1
161
57
0
166
60
0
170
63
1
176
67
0
181
71
1
187
75
1
195
82
3
190
79
1
189
77
1
188
77
1
186
75
0
185
74
0
186
75
1
187
76
1
190
77
1
193
79
0
194
82
1
194
83
1
196
85
1
197
87
1
197
87
0
201
90
1
202
89
0
206
91
0
210
94
1
211
95
0
210
95
1
208
94
0
207
94
0
211
97
1
214
99
1
222
108
1
232
122
1
235
125
1
234
124
2
234
123
1
233
124
1
231
123
1
229
120
1
228
119
0
230
120
0
230
121
1
234
124
1
241
133
2
238
129
2
236
128
1
242
134
1
246
142
4
201
109
2
90
38
1
63
27
2
63
26
2
62
27
2
62
27
1
63
27
1
63
27
1
55
26
3
55
24
2
57
23
2
59
23
3
59
25
4
58
26
5
58
23
3
64
30
2
88
34
2
127
44
3
143
47
2
152
51
2
158
54
1
162
57
0
166
61
0
172
64
0
176
68
1
180
70
0
184
73
1
191
78
1
197
83
2
190
78
0
189
77
1
191
79
1
190
78
0
188
76
0
188
76
0
189
78
0
190
78
0
195
81
0
196
84
1
194
83
1
195
85
1
199
89
2
198
87
0
202
90
0
204
92
0
208
95
1
211
97
2
208
94
1
207
93
1
207
94
0
210
97
2
213
101
2
216
102
0
222
110
1
229
118
1
228
117
0
229
118
1
229
119
0
231
123
0
230
122
0
227
117
0
225
115
1
225
115
1
228
117
2
233
122
1
239
131
1
240
132
1
238
130
0
239
131
1
245
139
1
240
137
2
151
75
2
66
26
2
64
25
4
64
25
3
62
27
1
62
26
0
64
27
2
58
24
4
57
24
2
58
24
1
60
24
4
60
23
5
58
24
3
59
27
3
74
30
3
107
39
1
139
46
2
153
52
2
161
56
1
163
58
1
166
61
2
171
64
1
176
67
1
179
70
0
183
73
0
187
76
0
196
84
1
199
87
1
194
82
1
191
79
0
194
81
1
193
81
0
191
80
1
191
79
0
191
80
1
191
80
0
196
85
0
197
87
0
195
84
0
195
85
1
199
88
1
203
92
2
207
94
2
205
92
1
208
95
1
209
95
1
207
93
1
206
93
2
205
93
1
207
97
0
212
100
1
216
102
1
222
109
1
226
115
0
227
116
1
229
119
2
230
122
2
231
122
0
231
122
1
227
117
1
225
113
1
226
114
0
227
115
1
230
119
3
231
121
1
234
124
1
239
131
1
240
134
1
245
135
1
247
143
3
210
115
2
93
37
3
65
27
2
65
28
2
64
27
1
64
26
1
64
25
1
57
25
1
59
27
1
58
27
1
58
28
2
59
27
3
60
27
2
62
30
0
100
34
2
132
44
1
150
50
0
161
56
1
166
61
1
168
64
1
170
64
0
176
67
1
183
69
0
187
72
0
191
79
1
197
85
1
205
92
2
211
98
1
209
98
1
207
95
0
206
93
1
201
88
2
196
84
1
194
83
1
193
80
1
192
81
1
194
84
1
194
85
1
194
84
2
194
85
2
196
86
1
206
92
2
216
104
1
213
101
1
210
98
1
207
94
0
206
93
1
205
93
1
206
93
1
207
93
1
213
99
0
220
109
1
226
116
1
228
118
1
232
121
2
234
124
0
233
123
1
229
120
0
228
119
1
226
116
1
223
113
0
223
112
0
226
114
1
226
114
0
226
115
1
230
120
1
238
130
1
242
136
1
244
136
1
248
139
2
239
137
2
152
74
2
73
31
2
64
28
2
65
26
2
65
25
2
66
25
3
57
27
1
59
28
1
60
28
2
61
29
2
59
28
1
60
29
2
83
34
2
120
39
3
141
46
1
154
54
1
165
60
0
172
65
1
174
67
0
177
68
0
183
72
1
189
76
2
193
80
1
201
88
1
208
95
0
212
99
0
216
104
1
220
108
0
222
110
2
217
107
2
204
93
2
198
87
2
195
84
1
193
80
0
194
83
0
197
86
1
195
85
0
194
83
0
194
84
1
197
86
1
206
91
1
219
107
1
224
114
1
221
110
2
213
99
1
210
96
1
208
95
1
207
94
2
209
93
1
218
103
1
227
117
2
231
122
1
231
122
1
234
124
0
234
124
0
229
120
1
226
118
0
225
117
1
223
115
1
221
112
0
223
111
1
224
112
1
224
114
0
224
114
0
227
117
0
235
126
0
243
137
1
245
137
1
244
135
0
246
140
1
197
106
3
99
41
2
65
26
2
66
25
1
66
25
2
66
26
2
59
28
1
59
28
0
61
28
1
61
28
1
61
30
1
67
31
1
102
37
4
131
43
3
150
50
1
162
59
1
171
65
1
180
71
0
185
73
1
187
76
1
193
82
1
198
86
1
202
89
1
208
94
1
215
100
1
216
104
1
219
107
2
222
109
1
224
113
1
218
108
1
203
93
1
197
88
1
195
86
1
198
85
2
196
85
0
199
88
0
200
88
0
197
85
0
195
85
1
200
89
1
208
94
0
220
109
1
221
112
1
218
106
1
216
103
1
216
103
1
213
101
1
212
97
1
216
101
1
225
111
1
233
123
1
232
123
0
228
117
1
230
119
2
232
122
1
231
121
2
225
114
1
222
111
1
221
110
1
222
111
1
224
113
1
223
112
0
223
111
0
221
110
0
222
111
1
230
119
1
241
132
1
246
139
1
244
138
1
244
135
3
228
126
2
139
63
2
69
25
2
66
25
1
66
26
1
65
25
0
59
28
1
59
28
0
61
29
1
63
28
1
65
29
1
81
32
1
120
39
2
146
50
2
162
57
1
171
63
1
180
71
1
191
79
1
198
83
1
198
85
1
201
89
1
210
97
1
215
103
1
220
108
1
225
112
2
222
113
1
220
112
1
223
112
1
223
112
1
214
103
1
202
92
1
199
89
1
199
88
1
201
89
1
197
87
0
200
89
1
203
90
1
201
88
1
200
90
1
208
97
0
217
105
1
224
115
2
220
112
1
216
105
0
218
107
1
219
108
1
217
104
1
216
103
1
220
108
1
228
117
0
236
126
0
236
126
1
229
118
1
229
118
2
229
119
1
230
119
1
226
116
1
221
110
0
219
108
1
221
111
1
222
114
1
221
111
1
221
109
0
219
107
0
218
106
1
224
113
1
236
124
1
245
136
1
248
142
1
245
137
2
239
135
2
174
88
2
84
32
2
66
26
1
67
27
2
66
27
1
58
28
0
60
28
0
61
29
1
62
29
1
70
30
2
99
35
2
138
46
0
163
60
0
172
64
1
178
66
1
186
74
0
197
83
1
205
90
1
206
94
1
209
97
2
218
106
1
222
110
1
223
112
0
226
115
1
224
115
1
222
114
1
223
113
2
220
109
1
211
100
1
205
93
2
204
93
1
204
93
1
205
92
1
201
89
1
203
91
2
206
92
1
208
94
0
211
100
1
219
109
1
225
115
0
226
118
2
221
113
1
217
107
0
222
112
1
224
114
2
219
107
1
219
107
1
223
112
1
229
120
1
238
129
1
241
133
1
236
127
0
233
124
1
234
123
2
232
122
1
228
118
1
222
112
0
220
109
1
220
110
1
220
111
2
220
109
1
219
107
0
220
106
0
219
106
0
222
109
0
231
117
1
240
130
0
249
143
1
246
141
2
242
136
2
201
107
2
107
44
2
69
28
2
66
30
2
67
30
2
59
29
0
61
29
0
62
28
0
63
29
0
81
32
1
120
41
3
151
52
0
171
65
1
176
67
1
180
68
1
188
76
1
198
86
2
206
93
1
211
99
1
216
104
2
219
107
1
217
105
0
217
105
1
220
109
1
223
112
1
222
111
2
216
106
1
215
104
0
213
101
1
212
99
1
216
104
0
216
105
1
212
99
0
209
96
1
210
98
2
214
101
0
218
106
0
222
112
1
228
119
1
231
123
0
230
122
1
223
115
1
216
106
1
218
107
2
219
108
1
216
104
1
218
106
1
224
113
2
228
119
1
236
126
0
240
132
1
238
130
1
234
126
0
235
127
1
235
126
1
230
121
1
223
112
1
221
110
1
220
110
1
220
109
1
221
109
1
219
107
1
218
105
0
219
106
0
221
108
1
227
113
2
233
122
0
247
139
1
246
141
2
239
132
2
218
116
2
130
58
3
73
29
2
67
29
3
68
31
3
60
29
0
62
29
1
63
28
0
65
29
0
96
36
2
139
46
1
162
55
0
177
69
2
181
71
1
186
74
0
194
83
1
201
90
2
204
92
1
213
98
2
220
110
1
216
104
1
209
96
0
208
95
1
212
99
1
218
106
1
219
108
1
213
101
1
215
102
2
216
104
1
219
107
1
229
118
1
232
123
0
229
118
1
224
112
1
221
110
0
225
116
1
227
118
1
229
121
0
233
125
0
236
127
0
230
121
0
222
113
1
215
103
0
209
96
2
209
96
1
212
100
1
216
103
0
220
108
1
226
117
1
234
125
1
238
129
2
234
125
2
229
119
1
230
122
1
232
124
0
229
120
1
225
115
1
223
113
0
222
111
0
221
109
0
220
108
1
220
107
1
217
104
0
216
104
0
218
105
1
222
108
2
230
118
0
244
137
2
245
140
0
235
128
1
225
117
2
154
70
2
80
32
1
68
27
2
67
28
2
60
28
0
62
28
2
63
29
1
67
29
1
107
39
2
150
50
1
170
63
2
182
73
1
190
78
0
195
83
2
199
87
1
202
90
0
208
94
0
216
103
2
218
107
2
211
97
0
207
94
1
206
94
0
212
99
2
221
108
1
223
111
0
220
108
1
221
109
1
221
110
2
222
112
0
232
124
1
241
134
1
241
134
1
236
127
1
232
123
1
233
125
1
233
125
0
235
128
1
239
131
1
241
132
1
234
126
1
226
116
1
218
107
0
211
98
1
210
97
2
213
100
1
218
105
1
220
108
0
224
115
0
233
124
1
236
128
1
231
121
1
224
110
1
224
110
2
223
112
1
224
113
1
227
117
1
228
118
1
223
112
0
222
110
1
220
108
0
218
105
0
217
105
0
218
106
1
219
107
0
223
110
1
232
121
0
244
137
1
245
142
1
238
132
1
228
120
3
174
81
3
91
38
1
68
27
1
67
27
2
61
29
1
60
28
2
62
29
2
69
30
1
117
42
1
162
58
0
181
72
2
191
80
0
199
87
1
201
90
1
205
93
1
208
95
1
210
97
1
212
99
1
207
94
1
205
90
1
206
92
1
208
94
0
215
102
1
225
114
1
229
118
0
231
121
3
232
122
1
230
119
0
231
121
1
237
129
0
247
140
1
247
142
1
242
135
1
240
132
1
240
133
0
240
134
0
242
136
1
247
139
1
247
142
1
239
134
1
232
124
2
227
116
1
223
112
1
218
106
1
215
105
1
218
106
0
222
108
1
225
114
2
231
122
2
234
127
1
231
123
1
222
112
1
219
110
1
219
110
0
222
111
1
224
114
1
225
115
1
223
113
1
222
110
1
220
108
0
220
107
1
218
105
0
219
108
2
221
110
0
225
113
1
231
121
2
241
134
1
243
138
0
241
134
2
232
125
1
193
94
2
106
44
1
70
29
1
69
29
3
62
28
2
62
28
2
64
28
2
82
33
1
137
49
1
176
69
2
191
80
2
201
88
0
206
93
1
209
96
2
211
98
2
211
98
1
210
95
1
211
97
1
206
92
1
206
92
1
209
94
1
212
97
1
218
106
1
226
117
1
234
124
0
241
130
2
239
131
2
238
128
1
238
129
0
242
135
0
250
144
0
250
144
1
243
137
1
242
136
1
243
137
0
243
136
0
245
139
1
249
144
1
248
144
0
243
137
1
237
130
2
234
126
1
231
123
1
229
119
0
227
118
2
222
115
1
220
109
1
221
108
2
227
115
1
232
124
1
233
125
1
225
117
1
223
116
2
224
114
0
224
113
1
222
111
0
221
111
0
221
111
1
220
109
1
221
109
1
221
109
1
219
106
0
221
109
1
223
112
0
224
114
1
228
118
1
239
130
1
241
134
0
236
129
2
232
125
2
203
101
2
118
49
2
72
30
2
69
31
2
63
29
1
63
29
1
69
30
1
106
39
1
158
60
1
185
76
2
197
86
1
206
94
0
211
97
1
213
100
2
215
103
1
216
102
1
214
100
1
219
107
1
214
102
2
212
98
2
214
101
1
218
104
1
225
113
1
233
125
1
239
132
0
244
135
1
244
137
1
243
137
1
243
138
1
245
140
1
247
143
1
248
143
0
243
138
0
243
137
1
244
137
0
243
137
0
245
138
1
247
141
0
246
141
0
243
136
1
241
134
1
242
134
1
238
129
1
236
127
1
235
128
2
229
123
1
221
110
0
215
101
0
220
107
1
227
116
2
229
120
1
229
120
0
227
119
0
225
115
1
224
114
0
222
112
0
222
112
1
221
111
0
221
110
0
223
111
1
223
111
0
221
109
0
222
110
0
224
113
0
224
114
1
228
117
1
237
128
2
240
132
1
232
124
1
229
120
1
209
104
2
127
55
1
74
32
2
69
32
2
65
29
2
64
29
1
77
32
1
126
45
1
170
67
1
190
80
2
204
94
2
212
99
1
215
100
2
215
101
2
218
106
1
219
106
1
218
105
1
222
112
0
222
111
1
219
107
2
222
110
1
226
115
1
233
124
1
242
135
1
245
140
0
248
142
1
248
143
0
244
140
1
245
141
2
245
142
1
244
142
0
245
140
1
243
137
0
244
138
1
243
136
1
243
136
1
244
137
1
245
140
0
245
140
0
244
138
1
243
136
1
242
135
1
238
130
1
238
128
1
237
129
1
233
128
1
224
116
0
217
104
0
219
107
1
224
113
2
226
116
1
230
122
0
231
122
0
227
118
1
225
116
0
224
114
1
224
114
1
224
114
0
224
113
0
223
112
0
225
114
1
224
112
0
223
112
0
226
115
1
224
113
1
227
116
1
234
125
1
237
128
2
229
120
2
229
118
1
212
104
2
135
58
1
77
33
2
68
32
2
64
27
3
65
29
1
88
35
1
139
50
2
174
68
1
194
84
1
209
98
2
215
101
1
214
99
1
215
102
1
218
107
0
218
105
1
220
109
1
223
114
1
225
115
1
224
113
1
230
119
1
233
126
1
238
131
1
244
138
2
246
141
1
246
141
0
245
141
0
243
138
1
244
139
2
248
144
1
249
146
2
245
140
2
244
139
0
244
139
0
243
136
0
244
136
0
245
138
0
246
141
1
243
139
1
244
138
2
241
135
0
237
129
1
235
127
1
236
128
2
237
130
1
235
130
1
226
119
0
221
109
1
222
110
1
226
115
1
229
119
1
233
124
1
235
127
1
232
124
0
229
120
1
226
117
1
226
116
0
226
116
1
226
115
0
225
114
0
225
115
1
223
112
1
224
113
0
226
115
0
225
114
0
226
115
0
231
121
0
232
123
1
226
117
1
226
116
1
211
104
2
140
59
1
79
34
1
67
33
1
64
26
1
67
29
1
95
37
2
144
51
2
176
68
1
194
84
0
208
95
1
214
100
0
215
101
1
216
104
2
218
107
1
219
108
1
223
113
0
226
117
2
228
118
1
228
118
1
234
125
0
237
130
1
238
131
0
241
135
0
240
136
1
240
135
0
242
136
0
241
135
1
243
137
1
247
143
1
249
145
1
246
140
0
244
138
1
246
139
1
248
141
1
248
141
0
247
140
0
247
142
1
243
140
2
243
137
2
239
132
1
232
124
0
230
121
1
231
123
1
233
125
1
230
123
1
222
114
0
220
109
2
222
111
1
227
117
0
232
123
1
236
127
1
237
130
1
235
130
0
233
125
1
228
120
0
226
117
0
226
116
0
227
116
1
225
115
2
223
112
1
223
111
0
225
114
0
228
117
1
227
116
0
227
116
0
227
117
0
229
118
1
227
117
1
225
116
1
211
104
1
145
61
0
81
35
1
70
34
1
65
26
1
67
28
1
97
37
1
149
53
1
180
71
2
196
86
2
208
95
2
215
101
2
214
101
1
215
103
1
220
108
1
225
113
1
226
115
0
229
120
2
233
125
1
233
124
1
238
131
0
240
134
1
239
131
1
240
133
0
237
133
0
239
133
0
242
136
1
241
135
0
242
136
1
245
139
1
245
139
1
245
139
1
245
137
2
246
139
1
251
146
2
252
147
2
247
142
0
245
140
1
243
137
1
240
134
0
236
129
0
230
121
1
226
116
0
227
117
1
225
115
1
223
114
1
218
107
1
216
103
2
223
111
2
231
120
2
236
127
1
239
130
1
239
132
0
238
132
0
236
129
1
231
123
0
227
118
0
227
116
1
226
116
0
225
115
0
225
116
1
226
115
1
226
115
0
228
117
1
228
117
0
228
117
1
227
116
0
229
116
1
227
116
1
226
116
0
211
105
1
147
62
1
84
36
1
71
34
1
68
29
3
69
28
1
101
39
1
153
56
1
180
71
1
197
87
2
208
94
3
211
97
1
216
102
1
219
107
1
225
113
1
227
116
1
227
117
0
231
122
2
235
127
1
236
128
1
240
134
1
243
137
2
240
133
1
238
131
1
237
131
0
240
133
0
242
135
1
240
134
0
241
135
1
243
137
0
243
137
1
244
138
0
243
136
1
245
138
1
248
142
0
248
143
1
246
140
1
243
138
0
242
136
1
241
134
1
239
130
2
233
123
1
230
120
1
229
119
2
224
114
1
221
111
1
216
104
1
215
101
1
224
112
1
232
122
1
236
127
0
239
130
0
240
133
1
241
135
1
241
135
1
238
130
0
234
124
0
233
122
2
230
120
1
231
121
0
233
123
2
227
116
1
223
112
0
226
114
0
227
115
0
227
116
0
228
118
1
229
117
0
226
115
2
225
114
0
210
104
1
145
62
2
84
36
0
74
35
1
68
29
3
74
29
2
107
40
2
157
56
1
180
71
1
197
86
1
208
95
3
209
95
0
217
104
1
221
111
0
224
114
0
225
114
0
227
116
1
231
121
1
233
124
0
236
128
0
240
133
2
243
137
2
240
133
1
237
129
0
237
130
0
240
134
0
242
135
1
240
134
0
241
135
1
244
138
1
244
139
1
244
139
1
244
138
2
244
138
1
245
140
1
245
139
2
245
138
2
243
137
1
243
137
1
244
138
1
243
135
1
240
132
0
239
131
1
236
128
1
231
123
1
223
114
0
219
107
0
220
108
0
226
115
1
229
119
0
233
123
0
238
129
1
242
134
1
246
141
1
246
141
0
243
138
1
240
132
0
238
129
0
233
124
0
232
121
0
232
122
0
227
117
0
223
113
1
226
114
0
229
117
1
229
118
1
230
121
1
229
119
0
226
115
2
223
115
0
207
103
1
140
59
2
83
35
0
73
33
1
69
28
2
75
29
2
110
40
2
159
58
1
181
72
1
198
85
2
209
96
2
214
102
1
218
107
2
222
112
1
223
113
0
224
113
0
227
116
1
230
119
1
234
125
0
235
129
0
238
132
1
241
134
1
240
132
0
238
129
1
238
130
1
241
135
0
242
137
1
242
135
1
242
136
1
245
140
1
248
143
2
246
140
0
243
137
1
243
137
1
243
137
2
241
134
0
242
135
1
244
137
1
244
137
1
245
140
0
246
140
0
246
139
1
245
138
1
240
134
0
234
128
1
225
117
0
224
114
1
225
116
0
225
117
1
225
115
1
229
118
1
237
127
2
245
138
0
253
151
1
249
147
0
244
139
1
242
136
1
240
133
1
237
129
1
232
121
1
230
119
2
226
116
1
224
115
1
226
115
1
231
120
2
233
122
1
232
125
1
229
120
1
226
117
1
223
115
1
204
99
1
134
55
1
81
33
1
73
32
2
69
28
1
74
31
4
110
41
2
161
60
2
186
75
2
201
87
1
212
99
2
218
107
1
219
109
1
222
112
1
224
115
0
226
116
1
227
116
1
230
120
1
236
129
1
236
130
1
237
131
1
242
135
1
242
134
1
239
130
1
240
131
1
243
137
0
245
139
1
244
137
1
242
136
1
243
137
0
246
140
1
247
140
1
244
138
0
244
138
1
244
137
1
242
134
0
242
134
0
243
134
0
242
134
0
244
139
1
245
141
1
246
141
1
246
140
1
242
136
1
236
129
1
228
119
1
226
116
1
226
116
0
225
116
1
224
114
1
228
117
1
236
126
1
243
136
0
252
150
1
250
147
1
245
140
1
244
138
1
237
130
1
235
127
1
231
123
0
227
117
2
225
115
0
227
116
1
228
116
2
233
121
1
235
127
1
236
130
1
229
121
1
225
116
1
222
113
1
201
96
1
128
52
0
79
33
2
74
33
1
69
27
2
73
29
3
110
41
1
163
60
0
188
76
1
203
89
1
215
102
2
221
111
2
222
112
1
224
113
1
226
116
0
228
118
1
228
117
0
232
121
2
236
129
1
238
130
1
239
131
1
244
136
1
244
137
2
240
132
1
241
133
1
244
137
1
247
140
1
245
139
1
243
136
1
241
135
0
241
135
1
247
138
0
246
139
0
244
138
0
243
136
0
242
135
0
242
135
0
243
134
1
241
132
0
243
137
1
243
140
0
245
141
1
246
142
1
247
142
2
240
133
1
230
122
0
227
116
0
226
115
1
225
116
0
227
117
1
231
121
1
236
126
1
239
132
0
245
141
0
247
142
1
246
140
2
244
138
1
234
126
0
229
120
1
230
121
1
225
115
0
224
115
0
226
117
1
230
118
1
236
123
1
243
134
0
239
134
1
228
119
0
224
114
1
220
111
1
195
93
2
121
48
0
78
32
1
75
33
1
68
27
2
74
30
2
117
43
1
168
63
0
189
77
0
203
89
0
219
107
2
223
115
2
223
114
1
227
117
2
228
119
1
230
120
2
230
120
0
231
122
1
235
127
1
238
129
1
240
132
1
244
138
1
243
138
1
241
134
0
242
134
0
244
136
0
247
141
1
245
139
1
243
138
0
241
134
0
242
135
0
248
139
0
251
143
2
246
141
2
244
137
1
243
136
1
243
137
1
244
136
1
244
135
1
245
139
0
245
139
0
244
138
0
244
140
0
245
142
1
240
135
2
234
127
0
231
122
1
229
119
1
230
122
1
233
125
1
235
126
0
237
127
0
239
131
1
241
135
1
242
137
1
242
136
1
242
136
0
236
129
1
230
121
1
229
119
3
224
115
0
228
118
1
229
121
1
232
122
2
236
123
1
245
137
2
240
135
1
227
117
1
224
113
2
219
111
1
185
86
2
113
44
2
79
32
2
77
32
1
68
30
3
77
32
2
125
44
1
172
65
0
190
78
1
205
90
1
222
110
2
223
116
1
223
114
0
226
116
1
228
118
1
230
120
1
232
124
1
232
125
0
234
127
2
237
128
1
241
133
1
247
141
1
245
140
1
242
136
0
242
134
1
245
139
2
249
144
1
249
145
1
247
142
1
243
137
1
245
137
1
246
137
1
247
141
0
246
140
2
245
139
2
246
138
1
245
138
1
244
137
0
243
137
1
244
138
0
240
135
0
237
130
0
237
129
1
235
126
1
231
122
1
232
124
0
234
126
0
234
126
1
237
130
1
240
133
1
240
133
1
241
133
2
241
134
1
243
136
2
240
133
1
237
130
1
236
128
0
232
123
1
227
117
1
229
118
1
231
121
0
234
124
1
233
123
1
229
120
1
229
119
1
235
126
2
233
126
0
225
114
1
222
111
1
218
111
2
175
79
2
103
39
1
76
31
0
78
31
2
67
30
1
77
31
2
122
43
2
170
64
1
191
79
1
203
90
1
216
105
0
225
116
2
224
114
0
227
116
1
229
118
1
229
120
1
235
126
1
237
130
0
233
128
1
236
129
0
241
133
2
246
139
1
246
140
1
243
137
0
242
135
0
247
140
1
252
145
1
253
148
1
249
143
2
244
137
1
244
137
0
245
138
2
243
137
2
244
138
1
248
141
1
247
141
1
245
139
1
243
135
2
239
128
1
238
131
1
235
130
1
228
121
1
226
115
1
227
114
1
230
118
1
233
124
0
238
130
2
236
128
1
235
126
2
235
126
2
238
131
0
239
132
1
239
132
0
239
133
0
239
132
0
237
129
2
232
123
1
230
120
2
231
121
1
234
125
0
234
125
0
232
123
0
229
119
0
226
117
0
225
117
1
226
119
2
226
118
1
224
111
1
222
111
2
215
108
2
160
70
2
94
38
3
77
33
2
78
32
2
67
32
2
72
33
3
105
41
1
157
60
1
188
78
1
203
89
1
215
103
1
222
112
0
227
118
0
232
122
1
232
121
0
231
120
0
235
125
1
240
131
2
238
133
0
239
132
0
241
134
1
244
137
0
247
141
2
246
140
1
244
138
1
247
140
0
250
144
0
251
146
0
249
143
1
248
141
0
250
144
1
248
143
1
245
138
1
246
139
1
250
143
2
248
142
1
244
139
0
238
131
0
235
122
1
233
124
0
230
121
1
226
116
0
225
113
0
227
115
1
234
125
2
238
130
2
237
131
1
236
128
2
231
120
0
231
120
0
234
124
0
234
126
1
236
127
1
235
127
1
235
126
0
236
127
1
234
125
0
236
126
0
239
131
1
239
133
0
234
127
2
229
120
2
226
116
0
224
115
0
224
114
0
223
114
1
222
112
1
223
110
1
223
114
2
204
101
1
137
58
1
85
36
1
77
33
2
78
34
3
68
32
2
70
33
3
97
40
2
151
60
1
187
78
1
204
90
2
215
103
2
222
112
0
227
117
0
231
121
1
233
123
0
232
122
0
236
126
0
241
132
1
241
134
0
243
135
0
243
136
1
243
136
0
247
140
1
248
142
0
247
141
1
248
143
1
250
146
0
252
148
1
251
147
1
252
147
0
254
149
0
251
145
2
247
141
0
248
141
0
250
143
1
249
143
1
244
139
2
235
128
1
231
120
2
230
121
2
226
116
1
228
117
1
232
122
1
235
125
1
239
132
1
238
132
1
235
129
1
234
126
1
230
119
0
227
117
1
229
120
1
231
122
1
233
124
0
232
123
0
232
122
0
234
124
0
234
127
0
241
134
1
246
140
1
242
139
0
231
127
1
226
118
1
223
115
1
223
114
1
223
112
1
223
111
1
221
110
1
221
109
1
224
116
2
193
94
2
118
46
2
80
35
1
77
35
2
78
34
3
68
32
2
71
33
1
97
40
1
152
60
1
189
78
1
205
91
1
216
104
1
222
112
1
226
115
0
230
119
1
232
122
0
233
123
0
236
127
0
240
131
0
240
132
1
244
137
1
245
138
1
243
137
1
246
141
1
250
144
1
248
143
0
250
145
1
252
148
0
253
150
1
254
150
1
254
151
0
254
151
0
251
146
2
247
142
1
249
144
1
250
144
2
248
142
1
243
137
2
231
123
1
224
113
1
226
115
2
225
114
1
230
120
1
237
128
2
235
128
1
234
127
1
232
125
1
231
123
1
230
122
1
228
117
1
226
115
1
229
119
2
231
121
1
231
122
0
231
122
1
232
121
2
232
122
1
234
126
0
243
136
1
247
141
1
242
137
1
229
123
0
223
115
0
222
114
1
221
111
1
221
109
1
221
108
1
218
107
0
222
110
1
221
113
2
172
80
2
101
38
2
78
34
1
78
36
2
78
35
2
67
33
2
70
33
3
95
39
3
152
60
2
188
77
1
205
90
1
212
100
1
222
111
1
227
117
1
231
121
2
231
122
0
233
124
0
236
127
1
237
128
0
240
132
1
247
140
1
247
142
1
244
138
0
246
142
1
250
146
2
250
145
0
252
147
1
254
151
0
253
152
0
254
151
0
254
152
0
253
153
0
250
148
0
249
144
0
248
142
1
244
138
1
240
134
1
234
127
1
227
118
1
224
113
2
225
115
1
227
117
1
229
120
1
232
122
1
229
121
2
225
118
1
225
116
1
226
116
1
226
115
1
226
114
1
228
115
2
230
118
1
232
120
1
231
119
1
228
117
1
229
118
1
231
120
1
234
125
2
239
131
1
239
132
0
235
128
1
226
117
1
221
111
0
220
111
2
220
109
0
219
105
0
218
105
1
216
105
0
221
110
3
211
103
1
146
64
1
88
35
2
78
35
2
78
36
2
78
35
1
68
32
2
68
31
2
86
35
1
139
53
2
184
74
1
202
88
1
212
100
2
224
112
3
229
118
1
230
120
1
232
124
0
234
126
0
237
127
1
237
129
0
240
131
2
244
136
0
245
139
1
245
140
0
248
143
1
251
146
2
252
148
0
254
150
1
255
152
1
254
153
0
254
152
0
254
154
0
253
153
1
252
151
0
250
147
1
244
138
1
235
129
0
231
126
1
226
118
0
225
114
1
225
115
3
223
112
0
226
116
2
228
118
1
229
119
1
228
120
1
223
116
1
222
114
1
223
112
2
224
111
1
226
113
1
232
120
2
233
123
2
231
120
0
231
119
2
227
117
1
227
116
0
229
118
1
232
123
1
233
124
1
232
124
0
228
120
0
222
114
0
219
109
0
219
109
1
219
108
0
218
105
0
218
105
0
220
109
0
219
112
1
192
90
3
118
49
1
80
35
2
78
35
1
79
36
2
80
37
2
71
33
3
69
33
2
77
33
2
123
48
2
181
74
1
202
89
1
216
104
3
221
111
1
227
117
1
229
118
1
233
125
1
236
129
1
237
128
0
239
131
1
238
129
0
240
132
0
243
137
1
248
143
2
252
148
1
253
149
1
254
150
0
253
150
0
253
152
0
254
153
0
254
155
0
254
158
1
254
155
2
254
153
1
251
147
2
239
132
1
229
122
0
225
117
1
223
113
1
223
113
1
222
114
1
222
111
1
226
114
1
228
119
1
227
119
0
228
119
0
227
118
0
223
115
0
221
110
1
222
110
1
229
117
0
238
129
2
235
129
1
228
120
0
227
118
1
226
116
1
225
113
0
225
113
1
227
116
1
229
119
1
225
116
1
223
113
0
222
112
0
220
110
0
219
110
1
219
108
0
219
106
0
220
108
1
223
112
0
218
114
2
164
74
4
96
40
0
77
36
1
79
37
2
81
37
2
80
36
1
70
33
2
70
34
2
72
34
2
102
42
2
167
69
1
205
91
1
217
106
0
221
111
0
228
117
1
231
120
1
235
127
1
237
130
1
238
129
0
241
133
0
243
136
1
243
136
0
246
140
1
251
147
0
254
149
0
253
149
0
254
152
0
254
154
0
254
154
0
253
156
0
254
161
0
255
166
0
255
163
0
254
157
0
251
150
0
241
135
0
230
123
1
222
114
1
221
110
1
222
112
0
223
115
1
223
113
0
227
116
0
229
119
1
227
119
0
229
118
1
234
125
1
232
124
1
224
113
0
225
114
0
233
123
1
238
130
1
233
127
1
227
119
1
225
115
1
221
110
0
219
108
1
219
109
1
220
111
1
219
110
0
218
108
0
220
109
1
221
111
0
221
111
0
222
113
1
222
112
1
222
111
1
224
113
2
226
117
1
204
105
5
122
49
1
84
37
1
80
37
1
82
38
1
82
38
1
82
38
1
70
32
1
71
32
2
72
32
2
87
36
1
151
60
1
202
90
2
218
105
2
221
108
1
227
116
0
231
121
0
235
126
0
238
130
1
239
130
0
240
134
0
245
139
1
247
142
0
248
143
1
251
147
1
254
150
0
254
151
0
254
153
0
254
156
0
255
157
0
254
160
1
254
164
1
254
166
1
255
163
0
254
159
1
252
152
0
246
141
1
236
129
1
226
118
1
222
112
1
223
112
1
226
117
2
226
118
1
229
120
2
230
121
1
230
120
1
234
123
1
241
131
1
236
129
1
226
117
1
225
115
1
229
119
0
230
121
0
227
120
1
224
117
1
223
114
1
221
110
1
220
109
0
220
110
1
219
108
1
218
108
0
218
108
0
221
110
1
221
111
1
220
110
0
223
113
1
225
115
1
224
114
1
227
119
1
227
122
2
172
80
4
96
39
2
82
37
2
82
37
1
83
37
1
82
37
0
82
37
0
71
32
2
72
31
2
72
32
2
79
33
2
137
54
2
192
82
2
213
100
1
221
109
1
228
118
1
232
122
0
236
126
0
239
131
1
240
132
0
240
134
1
245
139
0
249
143
1
251
146
1
253
148
1
253
150
1
254
152
0
254
154
0
255
157
1
255
159
1
255
162
1
255
164
1
253
164
1
254
163
0
253
159
1
254
154
0
248
144
1
240
132
1
232
124
0
226
117
0
223
112
1
224
115
1
227
119
1
232
123
1
236
128
1
235
127
1
237
129
1
240
132
0
233
125
0
224
115
1
224
113
1
224
114
1
224
114
0
224
114
1
222
114
1
222
113
0
223
112
0
221
109
0
221
109
1
218
107
0
219
108
1
219
108
1
221
110
0
219
109
0
219
109
1
222
112
1
225
116
1
230
121
1
235
132
2
213
111
3
130
52
1
84
36
2
82
38
1
82
37
1
82
36
0
82
36
0
83
37
1
73
33
1
73
31
1
73
32
2
75
31
2
114
44
3
172
69
2
206
96
2
224
112
2
230
120
1
234
125
1
237
128
1
240
132
1
241
134
1
241
135
0
245
138
0
249
143
1
252
148
1
254
150
1
254
152
1
254
153
0
254
154
0
255
157
1
255
158
1
255
161
1
255
162
1
254
163
1
253
164
1
254
160
1
254
153
0
251
147
1
246
139
1
240
132
1
232
124
0
227
117
0
227
118
1
231
122
2
234
126
1
236
130
1
236
131
1
237
132
0
237
130
0
229
122
0
223
115
2
222
111
1
221
111
1
221
111
1
222
111
1
222
112
0
222
113
0
222
112
1
220
109
1
220
109
1
219
108
0
219
109
0
220
110
2
220
109
1
219
107
1
219
107
1
223
113
1
231
123
1
241
136
2
236
135
3
170
79
3
98
37
2
83
37
2
83
37
1
83
38
1
83
37
0
83
37
0
83
37
1
76
33
2
74
32
3
74
32
3
75
31
2
89
35
2
144
55
3
202
92
2
223
111
2
232
123
0
235
126
2
237
128
0
240
133
1
244
138
2
243
138
1
245
139
1
249
144
0
253
149
0
254
150
1
253
152
0
254
156
1
254
157
1
254
157
1
254
156
0
254
158
1
254
159
0
255
160
1
254
164
1
254
160
1
255
154
0
253
151
0
251
148
1
249
144
1
243
136
0
236
130
0
235
128
1
235
127
1
235
126
2
234
126
2
234
128
0
237
130
0
237
131
1
231
126
1
225
118
2
226
116
1
227
118
1
227
117
1
229
116
1
228
117
2
223
115
1
221
111
1
220
109
1
221
111
1
221
111
1
221
112
1
219
111
1
218
108
0
220
109
2
223
112
2
234
124
2
245
139
1
247
145
1
203
106
2
119
50
1
84
36
2
84
37
1
84
36
2
85
37
1
86
37
1
86
37
1
85
38
2
75
32
1
74
32
3
75
32
2
76
32
2
78
31
2
106
41
2
182
81
4
217
106
1
232
123
1
237
127
3
238
130
0
241
134
1
244
138
1
245
140
0
247
142
0
249
145
1
251
147
0
252
148
0
253
152
0
255
156
1
254
158
1
254
157
0
253
156
0
254
160
0
254
162
0
254
160
0
254
162
0
253
160
0
254
156
0
254
155
1
254
155
2
254
154
1
251
149
1
247
142
2
242
134
3
234
125
1
233
123
1
233
124
1
234
126
0
237
130
1
241
134
2
235
129
2
227
119
1
231
121
2
233
124
1
236
127
0
239
129
2
234
127
3
225
116
1
223
111
1
222
111
0
223
113
1
224
114
2
223
113
1
220
110
1
219
109
0
225
114
1
231
121
1
246
139
2
250
149
4
222
125
4
147
66
3
92
40
1
83
38
2
85
37
0
86
36
2
86
36
2
86
36
2
86
36
1
85
37
1
76
33
2
75
31
2
76
33
2
76
33
3
76
32
1
77
33
1
130
50
2
208
94
2
232
122
3
239
129
2
240
133
1
242
138
2
244
138
1
246
141
2
246
142
0
250
144
1
251
146
1
252
148
0
254
152
0
254
154
0
254
154
0
255
156
0
254
157
1
254
162
2
254
163
2
253
160
0
255
162
1
255
160
2
254
156
1
254
153
0
253
152
1
252
151
1
248
144
1
244
138
1
241
134
0
235
127
1
238
130
2
240
132
3
236
129
1
236
129
1
235
127
1
227
120
0
224
114
1
230
119
1
239
130
2
245
137
2
244
137
2
236
130
1
230
121
2
227
115
1
225
114
1
222
112
0
221
110
0
221
107
1
222
108
2
225
112
2
234
123
1
245
136
1
253
149
2
233
135
2
166
79
2
104
41
2
85
38
1
84
37
3
85
39
1
85
38
2
85
37
2
87
37
3
86
36
2
86
38
1
76
31
2
76
31
2
74
32
2
75
33
1
76
32
1
75
32
1
84
33
4
160
72
4
222
117
3
237
129
1
244
136
2
245
139
2
246
139
2
246
142
1
248
144
0
250
144
0
252
146
1
254
150
0
254
152
1
254
154
1
254
155
0
255
159
1
254
160
0
254
160
0
254
160
0
254
160
1
254
160
1
255
158
1
253
154
0
254
151
0
253
149
0
250
146
1
243
137
0
240
133
1
241
133
2
235
127
2
240
133
1
239
132
2
231
123
1
225
116
1
221
113
1
219
112
0
221
110
1
229
119
2
243
134
2
246
140
1
244
137
0
241
132
1
237
127
1
232
121
0
229
120
1
225
116
1
224
113
1
227
114
1
233
121
0
239
130
2
248
141
2
252
149
1
238
139
1
179
90
1
112
46
1
89
37
1
84
38
1
85
38
2
86
38
2
85
39
2
86
40
1
88
38
1
88
39
1
87
41
2
76
31
1
76
32
2
75
33
1
74
33
1
75
33
1
76
33
2
74
35
2
100
42
2
173
83
4
229
122
2
244
139
2
247
142
1
247
142
2
249
144
1
251
146
1
251
146
0
252
149
0
254
153
0
253
152
0
254
155
1
254
158
1
255
160
1
254
160
1
254
159
0
255
159
0
254
158
0
254
157
0
254
155
0
254
153
1
254
150
0
254
150
1
251
147
1
246
141
0
240
133
2
235
125
2
237
127
1
244
138
1
240
133
1
232
123
2
224
114
1
221
111
1
222
112
0
221
110
0
227
116
1
240
132
1
247
140
1
245
137
0
242
134
1
239
130
0
238
129
1
237
127
2
231
122
1
233
123
1
239
129
1
245
138
1
248
141
1
252
148
2
239
141
3
190
98
2
122
51
1
88
38
2
84
40
1
85
38
2
86
39
2
87
40
1
86
40
1
86
41
1
87
40
1
87
40
2
86
41
2
76
32
1
76
32
1
75
33
1
75
32
1
77
33
2
77
35
2
75
34
4
80
35
1
108
49
3
190
99
3
240
134
2
249
143
2
250
143
1
250
146
2
253
148
1
254
150
0
254
154
1
254
156
1
254
154
0
253
154
0
253
156
0
255
156
1
254
156
0
254
157
1
253
154
0
253
153
0
254
153
1
253
153
1
253
151
1
252
148
1
251
147
1
251
146
1
249
143
1
244
137
1
239
131
1
243
135
1
246
139
2
240
132
1
231
122
1
225
116
1
225
115
1
226
116
1
226
116
1
231
122
1
244
137
1
250
144
1
246
139
0
242
134
1
241
132
1
244
136
2
242
134
1
241
134
1
247
139
1
251
145
1
251
146
2
248
140
1
240
138
1
190
100
3
126
52
1
93
40
1
85
39
3
87
40
2
87
39
2
87
39
1
87
41
2
87
41
1
86
41
0
87
40
1
88
41
2
87
42
1
76
33
1
77
33
1
77
32
1
77
33
1
78
33
2
78
33
2
77
35
2
78
34
2
82
37
3
120
58
3
193
102
3
238
135
4
249
143
3
251
147
3
254
148
1
254
152
0
254
156
1
254
158
1
255
156
0
255
154
0
255
153
0
254
152
0
254
154
1
254
155
1
253
151
1
253
150
1
254
150
1
253
150
1
254
150
0
253
150
1
252
148
1
251
146
0
252
146
1
249
143
0
247
140
0
248
141
1
246
139
1
241
134
1
235
127
1
231
122
1
230
121
1
232
122
1
236
126
1
241
134
2
249
144
1
251
146
1
248
142
0
246
139
1
247
140
1
249
145
1
251
148
1
252
149
1
253
150
1
253
151
1
251
149
2
243
139
3
191
98
3
128
56
3
94
40
1
86
41
1
86
41
2
87
42
2
88
40
1
88
40
1
87
41
1
89
41
1
89
41
1
88
41
1
89
41
1
88
42
1
77
34
2
77
34
1
78
34
1
78
35
1
78
35
1
79
34
2
78
34
1
80
34
3
79
36
3
82
37
2
117
58
3
187
101
5
237
136
3
248
146
2
253
148
2
253
151
1
254
154
1
254
156
1
254
154
0
254
152
0
255
151
0
253
150
0
253
153
1
253
152
1
253
150
0
253
148
1
254
148
1
253
149
1
254
150
1
254
151
0
254
151
0
254
149
0
253
149
1
252
147
1
250
144
1
249
142
1
249
142
1
246
139
1
243
136
1
242
134
1
241
133
2
242
133
1
248
141
2
251
146
1
251
148
0
251
146
0
250
144
1
251
145
1
252
146
0
252
149
0
254
152
1
253
153
0
253
154
1
252
152
3
240
140
4
194
101
2
122
53
2
93
41
1
87
41
2
86
42
2
87
42
0
87
42
1
88
42
1
89
41
1
89
42
1
90
43
1
90
42
1
89
43
1
89
43
1
89
43
0
79
36
2
80
36
2
80
36
2
80
36
1
80
37
1
81
37
1
80
37
2
81
38
1
81
39
2
80
38
2
84
39
3
107
52
4
181
95
6
238
134
3
249
145
2
252
148
2
252
149
1
253
150
2
253
151
1
253
152
0
253
152
0
253
152
0
253
151
0
252
149
0
252
148
0
252
148
0
254
149
1
254
150
0
255
150
0
255
150
0
255
151
0
254
152
0
254
150
0
252
148
1
250
143
1
245
138
0
246
140
1
248
142
1
250
146
1
252
148
1
252
147
1
251
148
1
253
150
0
253
151
0
253
150
0
253
150
0
253
149
0
254
150
1
254
151
0
254
151
0
253
151
1
254
152
1
252
152
3
232
134
2
180
88
1
121
51
3
91
42
1
88
41
2
89
41
1
88
42
1
89
42
0
89
43
1
90
43
2
90
43
1
91
44
1
90
43
1
90
43
1
89
44
1
89
43
0
90
43
1
79
37
2
81
36
3
80
36
2
81
36
2
81
37
2
80
37
1
81
38
3
80
37
1
80
38
1
81
38
1
81
38
2
82
38
2
96
45
4
155
79
6
231
131
1
251
144
3
253
147
3
253
149
2
253
149
1
254
150
1
253
150
0
254
150
1
252
148
0
252
148
0
253
149
0
252
148
0
252
148
0
252
148
0
252
146
0
253
146
0
253
148
1
253
149
0
253
149
1
252
148
0
249
144
1
245
138
0
246
139
0
250
145
1
252
152
1
255
159
0
255
158
0
255
157
0
255
158
2
254
157
1
254
156
0
254
158
0
254
159
0
254
158
0
254
157
0
254
152
1
252
151
4
247
147
2
219
120
3
159
75
2
111
48
2
93
41
4
88
42
1
89
43
2
88
41
1
89
41
1
90
42
1
91
43
1
90
43
1
90
42
1
91
44
1
91
43
0
91
43
1
91
44
0
91
43
1
91
43
2
78
36
1
79
36
1
80
37
2
81
38
3
80
37
2
79
37
1
79
36
1
80
37
2
82
38
2
82
38
1
82
38
1
80
39
1
81
39
2
82
39
1
126
61
3
203
113
1
240
139
2
250
148
1
253
151
0
253
152
0
254
151
1
255
151
1
254
150
1
254
150
0
253
149
0
252
148
1
250
145
1
250
143
1
249
142
1
249
142
1
249
143
1
249
144
1
249
144
0
252
148
1
253
149
2
251
145
1
252
145
1
254
150
2
254
152
0
253
155
1
254
158
1
255
157
0
253
155
0
252
156
0
253
162
0
254
167
1
255
168
1
254
164
1
254
160
0
250
151
1
234
136
1
192
100
3
132
57
2
97
43
3
89
41
2
88
44
1
92
41
1
93
41
2
91
42
2
91
42
2
91
42
1
91
42
1
90
43
1
91
42
1
91
42
1
92
42
0
92
42
1
91
42
1
91
41
0
92
41
1
79
39
3
79
39
0
80
38
1
81
38
0
81
38
0
81
39
1
81
38
1
82
38
2
82
37
1
81
36
0
82
37
1
84
37
2
83
37
2
83
38
1
85
37
1
100
47
1
156
81
3
212
120
3
241
145
2
252
155
1
253
155
1
254
153
0
254
154
1
255
154
1
253
152
1
250
146
1
248
142
2
247
140
1
247
141
1
247
141
1
247
141
0
249
142
2
250
144
2
251
146
1
252
147
2
251
146
1
251
146
1
253
150
1
254
151
1
253
149
1
254
151
1
254
153
1
254
155
2
255
157
0
254
162
1
254
165
1
254
163
2
251
157
1
239
143
2
205
109
3
153
69
4
109
45
2
91
42
0
90
43
1
91
44
1
90
42
1
89
43
3
90
43
2
91
43
1
91
42
1
91
42
1
91
43
1
91
43
2
92
43
2
92
42
1
93
43
1
93
42
1
93
43
1
93
42
1
93
41
1
79
40
2
80
38
0
81
38
1
82
38
1
82
38
1
82
37
1
82
37
1
82
37
1
82
36
0
82
37
0
82
37
1
83
37
1
83
36
2
84
37
2
84
36
2
84
38
1
91
41
2
119
57
2
167
90
3
209
123
2
237
144
2
252
153
2
255
156
1
254
157
0
254
155
1
253
151
1
251
147
3
250
145
1
251
146
0
250
146
1
250
145
1
252
146
2
252
146
1
251
145
2
249
142
3
251
146
2
252
150
2
253
152
2
253
152
2
253
150
2
254
150
1
253
152
0
253
154
1
253
153
1
253
155
2
246
150
2
233
136
2
208
114
2
166
83
2
121
53
2
98
43
2
90
41
2
90
42
1
90
43
1
90
43
1
90
42
1
91
42
2
92
43
2
91
42
1
92
42
1
92
42
1
92
42
1
93
42
2
93
43
2
93
42
0
94
43
0
94
42
1
94
43
1
94
43
0
93
41
1
81
40
1
81
38
1
82
37
1
82
37
2
82
37
1
82
37
1
83
36
0
83
37
1
83
37
1
83
37
1
82
37
1
82
36
2
84
37
3
86
37
3
85
37
3
85
37
2
85
37
2
84
36
1
91
41
2
118
58
3
159
86
2
202
114
3
230
136
3
246
149
2
251
153
2
253
152
1
253
151
2
253
150
1
252
150
0
253
148
1
253
148
1
253
148
1
253
148
1
253
147
2
252
146
3
253
150
1
254
154
1
254
153
0
253
151
0
253
150
1
254
152
2
252
151
1
250
148
2
239
139
3
223
126
3
194
102
3
157
76
3
121
54
1
98
43
2
90
42
2
90
43
1
90
43
1
92
42
2
91
43
2
90
43
1
91
42
1
91
42
1
92
43
2
92
42
1
93
41
1
93
41
1
93
41
1
93
41
1
94
42
2
94
42
0
94
43
1
94
42
2
94
43
1
94
43
0
94
42
0
82
39
0
82
38
1
82
37
2
83
37
2
83
37
1
84
37
1
84
37
1
84
37
1
83
37
1
83
37
1
82
36
1
82
37
2
83
37
1
85
38
1
85
39
2
85
40
3
85
38
2
86
38
2
85
40
1
86
40
1
93
43
1
111
52
2
138
69
3
168
88
4
198
111
3
224
128
3
239
139
4
247
145
4
251
148
2
253
148
1
254
150
2
254
152
1
254
152
0
254
151
1
253
152
1
253
154
1
252
154
2
252
152
1
252
150
3
246
145
3
237
137
3
216
119
1
191
99
2
162
80
2
135
64
2
113
52
1
99
44
2
93
43
2
90
43
1
90
43
2
91
42
3
92
42
2
92
43
2
91
42
2
91
42
1
91
42
0
92
42
1
93
42
2
93
42
2
93
41
1
93
41
1
93
41
1
92
42
1
93
42
2
94
43
0
94
43
1
94
42
2
94
43
1
95
44
1
94
43
0
82
38
0
81
37
1
82
37
2
83
36
2
84
36
2
84
36
1
85
37
1
85
37
1
84
37
1
83
37
1
83
37
1
84
38
2
84
40
2
84
40
0
85
40
1
85
41
1
86
39
1
87
39
2
87
40
3
87
41
2
87
39
4
87
38
1
90
41
2
97
45
2
108
53
2
122
61
2
138
70
1
157
79
2
175
91
2
192
101
2
202
108
3
210
114
3
214
118
2
217
119
2
217
120
3
211
117
2
204
110
2
194
103
1
179
94
2
161
81
3
144
69
2
125
57
1
110
49
3
100
44
1
95
43
2
92
42
2
91
43
2
91
42
1
92
42
1
92
42
3
93
42
1
93
42
1
93
42
1
93
42
2
92
42
1
92
43
0
94
43
1
94
42
2
94
42
2
94
42
2
93
41
1
92
43
1
93
43
2
94
44
2
94
44
1
94
43
1
94
43
1
95
44
1
95
44
1
95
44
1
83
37
1
82
36
0
82
36
1
82
36
1
84
37
2
83
37
1
85
37
1
86
37
1
86
39
2
84
39
1
85
41
2
85
41
2
86
41
2
86
41
2
86
41
1
86
41
1
86
41
2
86
39
2
88
40
2
89
40
2
89
40
2
89
40
0
88
42
1
87
42
2
87
42
1
90
42
2
92
42
1
95
43
2
97
45
2
100
47
0
103
50
2
108
51
2
112
51
1
114
52
1
115
53
1
110
50
1
109
48
1
105
46
0
100
45
1
96
43
1
95
43
2
94
41
1
94
42
2
94
42
2
93
42
1
93
42
2
92
43
2
93
42
2
94
42
2
93
41
2
93
41
1
94
42
2
94
42
1
94
42
2
93
41
1
92
43
2
92
43
2
94
41
1
95
42
2
94
43
2
94
43
1
95
44
1
95
44
1
96
43
3
95
43
1
95
44
1
95
44
0
95
44
1
96
45
1
95
44
1
